<svg xmlns="http://www.w3.org/2000/svg" width="512" height="512" viewBox="0 0 512 512" version="1.1"><path d="M 239.500 100.629 C 190.781 107.915, 150.672 133.888, 125.804 174.254 C 122.671 179.339, 120.105 184.175, 120.102 185 C 120.097 186.364, 168.470 224.500, 170.205 224.500 C 170.614 224.500, 172.746 220.785, 174.942 216.243 C 180.781 204.169, 186.268 196.505, 195.519 187.500 C 227.599 156.277, 275.577 152.523, 311.419 178.431 L 319.339 184.156 341.419 162.014 L 363.500 139.872 359 135.906 C 347.392 125.674, 327.771 114.249, 312 108.537 C 295.307 102.492, 285.207 100.834, 263 100.494 C 251.725 100.321, 241.150 100.382, 239.500 100.629" stroke="none" fill="#e54335" fill-rule="evenodd"/><path d="M 341.987 161.750 L 327.500 176.500 342.250 162.013 C 355.952 148.555, 357.453 147, 356.737 147 C 356.592 147, 349.955 153.637, 341.987 161.750 M 256.768 161.725 C 258.565 161.947, 261.265 161.943, 262.768 161.715 C 264.271 161.486, 262.800 161.304, 259.500 161.310 C 256.200 161.315, 254.971 161.502, 256.768 161.725 M 116.148 192.184 C 107.444 211.624, 103.960 227.617, 103.291 251.197 C 102.577 276.398, 105.216 292.066, 114.018 314.890 C 119.082 328.021, 116.061 328.841, 145.035 306.477 C 159.041 295.667, 170.613 286.712, 170.751 286.577 C 170.890 286.441, 170.037 282.769, 168.857 278.415 C 165.847 267.308, 165.794 244.899, 168.753 234 C 169.872 229.875, 170.605 226.196, 170.381 225.824 C 169.960 225.126, 122.488 188.035, 120.238 186.646 C 119.351 186.099, 118.135 187.746, 116.148 192.184" stroke="none" fill="#f6b704" fill-rule="evenodd"/><path d="M 144.918 306.627 C 130.938 317.422, 119.390 326.344, 119.256 326.454 C 118.765 326.857, 129.183 343.673, 133.535 349.501 C 156.091 379.710, 189.186 401.018, 226.043 409.062 C 261.530 416.807, 301.754 411.645, 333.190 395.312 C 343.471 389.970, 360.923 377.756, 361.722 375.343 C 362.014 374.460, 319.355 340.395, 313.320 336.693 C 312.672 336.295, 309.960 337.255, 307.296 338.826 C 300.488 342.840, 290.861 346.496, 281.500 348.623 C 269.519 351.345, 248.244 351.106, 237.092 348.125 C 209.338 340.705, 187.334 322.061, 174.826 295.369 C 172.669 290.766, 170.776 287, 170.620 287 C 170.464 287, 158.898 295.832, 144.918 306.627" stroke="none" fill="#34a353" fill-rule="evenodd"/><path d="M 259 258 L 259 288 300.941 288 C 324.009 288, 343.091 288.338, 343.346 288.752 C 344.165 290.076, 339.497 303.264, 335.552 310.770 C 331.797 317.915, 321.733 329.457, 315.502 333.764 C 313.853 334.904, 312.728 336.033, 313.002 336.273 C 313.276 336.513, 324.656 345.321, 338.291 355.848 L 363.082 374.986 369.270 368.452 C 388.348 348.307, 402.267 319.447, 407.105 290 C 409.771 273.775, 409.928 244.793, 407.422 231.437 L 406.777 228 332.889 228 L 259 228 259 258" stroke="none" fill="#4280ef" fill-rule="evenodd"/><path d="M 256.750 99.723 C 258.538 99.945, 261.462 99.945, 263.250 99.723 C 265.038 99.502, 263.575 99.320, 260 99.320 C 256.425 99.320, 254.963 99.502, 256.750 99.723 M 323 180.500 C 320.571 182.975, 318.809 185, 319.084 185 C 319.359 185, 321.571 182.975, 324 180.500 C 326.429 178.025, 328.191 176, 327.916 176 C 327.641 176, 325.429 178.025, 323 180.500" stroke="none" fill="#a07f38" fill-rule="evenodd"/><path d="M 225.500 7.549 C 170.245 14.255, 118.895 39.368, 79.132 79.132 C 31.578 126.685, 6 188.545, 6 256 C 6 323.455, 31.578 385.315, 79.132 432.868 C 126.685 480.422, 188.545 506, 256 506 C 323.455 506, 385.315 480.422, 432.868 432.868 C 480.422 385.315, 506 323.455, 506 256 C 506 188.545, 480.422 126.685, 432.868 79.132 C 392.640 38.903, 341.445 14.063, 285.200 7.484 C 269.780 5.680, 240.638 5.712, 225.500 7.549 M 242.500 100.088 C 215.807 102.831, 187.139 114.229, 164.883 130.946 C 134.434 153.818, 113.944 186.534, 105.351 226 C 103.871 232.798, 103.500 238.806, 103.500 256 C 103.500 274.835, 103.787 278.782, 105.816 287.844 C 115.897 332.858, 142.034 369.051, 180.603 391.403 C 214.746 411.190, 254.329 417.263, 294.840 408.929 C 368.692 393.738, 414.610 328.639, 408.926 247.187 C 408.454 240.415, 407.777 233.327, 407.422 231.437 L 406.777 228 332.889 228 L 259 228 259 258 L 259 288 300.941 288 C 324.009 288, 343.091 288.338, 343.346 288.752 C 344.076 289.932, 339.653 302.866, 336.195 309.662 C 327.073 327.592, 308.246 341.618, 285.106 347.723 C 276.967 349.870, 273.209 350.268, 260.500 350.329 C 247.912 350.389, 244.148 350.037, 237.092 348.139 C 209.374 340.681, 187.207 321.940, 174.974 295.619 C 151.237 244.548, 178.029 183.577, 232 165.842 C 240.319 163.109, 243.271 162.660, 255.740 162.235 C 268.060 161.814, 271.284 162.050, 279.660 163.986 C 291.305 166.677, 306.149 173.914, 313.861 180.660 L 319.172 185.305 335.154 169.403 C 343.944 160.656, 353.910 150.398, 357.299 146.606 L 363.462 139.711 358.064 134.877 C 329.248 109.068, 284.934 95.728, 242.500 100.088" stroke="none" fill="#fbfbfb" fill-rule="evenodd"/></svg>