<svg xmlns="http://www.w3.org/2000/svg" width="512" height="512" viewBox="0 0 512 512" version="1.1"><path d="M 192.500 53.668 C 179.017 55.319, 166.431 62.441, 158.842 72.715 C 147.677 87.827, 146.420 109.359, 155.777 125.200 C 157.370 127.896, 157.348 128.068, 155.218 129.560 C 152.651 131.358, 152.267 135.505, 154.585 136.394 C 156.758 137.228, 165 131.190, 165 128.764 C 165 127.720, 163.932 125.434, 162.626 123.683 C 158.580 118.257, 155.999 109.685, 156.011 101.712 C 156.036 84.819, 164.516 71.311, 179.807 63.806 C 186.082 60.726, 187.156 60.521, 197 60.521 C 206.805 60.521, 207.934 60.734, 214.065 63.745 C 222.654 67.964, 230.178 75.491, 234.173 83.863 C 236.999 89.785, 237.339 91.476, 237.415 99.989 C 237.510 110.617, 236.136 116.219, 231.820 122.800 C 228.234 128.269, 228.280 129.371, 232.237 132.742 C 242.736 141.685, 249.498 151.079, 253.160 161.810 C 256.511 171.627, 256.491 189.629, 253.117 199.403 C 249.935 208.624, 241.792 220.371, 234.524 226.227 C 227.119 232.192, 216.080 237.541, 209.250 238.472 L 204 239.188 204 235.316 C 204 231.350, 204.608 230.150, 211.007 221.500 C 237.143 186.169, 237.277 185.963, 235.464 183.960 C 234.187 182.550, 233.291 182.309, 231.963 183.020 C 230.981 183.546, 225.558 190.394, 219.912 198.238 C 207.572 215.384, 205.409 218.075, 204.611 217.278 C 204.275 216.942, 204 204.172, 204 188.901 C 204 162.055, 203.934 161.114, 202.009 160.503 C 200.914 160.155, 199.564 160.152, 199.009 160.494 C 198.408 160.866, 198 166.761, 198 175.059 C 198 182.727, 197.689 189, 197.309 189 C 196.930 189, 192.268 184.725, 186.950 179.500 C 181.631 174.275, 176.572 170, 175.707 170 C 174.842 170, 173.831 170.958, 173.459 172.128 C 172.899 173.894, 174.927 176.403, 185.392 186.892 L 198 199.528 198 219.764 L 198 240 195.065 240 C 189.419 240, 177.447 236.945, 171.250 233.923 L 165 230.875 165 199.341 C 165 164.031, 164.539 160.739, 158.264 151.238 C 150.407 139.340, 139.745 133.600, 125.500 133.600 C 109.511 133.600, 96.755 141.537, 89.757 155.842 L 86.500 162.500 86.214 202 C 85.908 244.202, 85.738 242.355, 90.876 252.803 C 94.921 261.030, 106.331 269.479, 116.729 271.948 L 121.957 273.189 122.229 292.345 L 122.500 311.500 125 311.500 L 127.500 311.500 128 292.581 L 128.500 273.663 135 271.520 C 138.575 270.342, 143.300 268.431, 145.500 267.274 C 153.043 263.305, 161.224 252.700, 163.389 244.081 C 164.730 238.742, 164.458 238.767, 176 242.893 C 182.179 245.102, 186.333 245.941, 191.212 245.966 L 197.925 246 198.212 255.250 C 198.496 264.373, 198.534 264.500, 201 264.500 C 203.444 264.500, 203.511 264.299, 204 255.510 C 204.445 247.503, 204.719 246.483, 206.500 246.184 C 210.139 245.573, 222.727 241.180, 226.815 239.094 C 242.400 231.143, 253.530 217.934, 259.335 200.497 C 261.638 193.579, 262 190.838, 262 180.299 C 262 169.165, 261.730 167.358, 258.892 159.515 C 255.086 148.996, 247.936 137.810, 241.504 132.313 L 236.688 128.196 238.972 123.348 C 244.751 111.080, 246.057 102.186, 243.611 91.750 C 238.534 70.091, 222.215 55.707, 200.500 53.751 C 197.750 53.504, 194.150 53.466, 192.500 53.668 M 116.500 140.912 C 108.477 143.145, 100.720 149.156, 96.578 156.349 C 92.270 163.833, 91.814 169.015, 92.169 206.500 C 92.485 239.885, 92.600 241.716, 94.661 246.176 C 97.959 253.312, 104.582 259.903, 111.728 263.161 C 121.351 267.548, 122 267.309, 122 259.388 L 122 252.776 112.010 242.638 C 101.577 232.050, 99.948 229, 104.726 229 C 106.772 229, 109.269 230.803, 114.726 236.225 L 122 243.450 122 233.060 L 122 222.670 115.999 216.420 C 112.160 212.423, 110.206 209.627, 110.576 208.663 C 111.696 205.743, 114.038 206.040, 117.772 209.575 L 121.500 213.104 121.809 210.625 C 122.192 207.556, 124.219 205.763, 126.373 206.590 C 127.588 207.056, 128 208.536, 128 212.440 C 128 215.315, 128.313 217.980, 128.696 218.362 C 129.078 218.745, 132.428 216.044, 136.140 212.361 C 141.914 206.631, 143.114 205.850, 144.445 206.954 C 147.272 209.301, 146.090 211.452, 137 220.500 C 128.012 229.446, 128 229.465, 128 234.562 C 128 237.370, 128.310 239.977, 128.689 240.356 C 129.068 240.735, 131.255 239.204, 133.548 236.953 C 137.414 233.159, 137.837 232.980, 139.359 234.502 C 140.261 235.404, 141 236.604, 141 237.169 C 141 237.733, 138.053 241.247, 134.452 244.977 L 127.903 251.760 128.202 258.630 C 128.472 264.857, 128.708 265.530, 130.720 265.816 C 134.258 266.319, 145.377 260.432, 149.491 255.878 C 151.547 253.602, 154.415 249.211, 155.865 246.120 L 158.500 240.500 158.500 203 L 158.500 165.500 155.753 159.726 C 152.251 152.366, 148.002 147.720, 141.231 143.846 C 136.674 141.239, 134.607 140.717, 127.677 140.423 C 123.180 140.233, 118.150 140.453, 116.500 140.912 M 306.193 177.250 C 299.253 183.988, 286.583 196.327, 278.037 204.672 C 269.492 213.016, 260.913 221.341, 258.974 223.172 C 253.979 227.888, 221.116 259.317, 211.122 268.936 C 206.514 273.371, 202.436 277, 202.059 277 C 201.682 277, 200.052 275.611, 198.437 273.914 C 192.767 267.956, 192.921 267.912, 181.706 278.699 C 167.364 292.492, 125.631 332.575, 119.832 338.125 C 117.175 340.669, 115 343.413, 115 344.223 C 115 345.600, 126.977 358.139, 128.924 358.802 C 129.413 358.968, 131.429 357.684, 133.406 355.948 C 135.383 354.213, 137.080 352.952, 137.177 353.146 C 137.274 353.341, 137.612 371.500, 137.927 393.500 L 138.500 433.500 271.621 433.754 L 404.742 434.007 405.477 362.754 C 405.882 323.564, 406.401 291.301, 406.632 291.057 C 406.863 290.814, 409.641 293.176, 412.805 296.307 C 415.969 299.438, 419.229 302, 420.049 302 C 422.397 302, 440 283.792, 440 281.364 C 440 279.284, 429.261 268.624, 364 205.923 C 325.921 169.338, 321.254 165, 319.978 165 C 319.336 165, 313.132 170.512, 306.193 177.250 M 316.912 175.770 C 314.121 178.714, 303.736 188.788, 261.007 230 C 245.896 244.575, 228.405 261.450, 222.140 267.500 C 215.874 273.550, 210.091 279.133, 209.289 279.906 C 208.021 281.129, 208.686 282.167, 214.392 287.874 L 220.954 294.435 232.227 283.461 C 242.863 273.107, 289.827 227.681, 309.500 208.718 C 314.450 203.946, 319.244 200.033, 320.153 200.021 C 321.678 200.002, 332.946 210.488, 369.500 245.944 C 390.697 266.504, 419.099 293.467, 419.864 293.757 C 420.238 293.899, 423.359 291.173, 426.801 287.701 L 433.058 281.388 410.779 259.947 C 398.526 248.155, 383.325 233.526, 377 227.438 C 370.675 221.349, 363.631 214.598, 361.346 212.434 C 359.061 210.270, 348.991 200.625, 338.969 191 C 328.947 181.375, 320.466 173.397, 320.123 173.270 C 319.781 173.144, 318.335 174.269, 316.912 175.770 M 310.486 216.764 C 266.512 259.380, 248.014 277.202, 245.250 279.612 L 242 282.445 242 354.723 L 242 427 256 427 L 270 427 270 373.700 C 270 333.578, 270.297 320.103, 271.200 319.200 C 272.071 318.329, 279.448 318, 298.118 318 C 312.263 318, 324.548 318.273, 325.418 318.607 C 326.834 319.150, 327 324.886, 327 373.107 L 327 427 363.500 427 L 400 427 400 355.687 L 400 284.374 390.250 274.915 C 347.361 233.304, 320.732 207.984, 319.888 208.014 C 319.675 208.021, 315.444 211.959, 310.486 216.764 M 312.994 242.871 C 301.153 246.773, 292.795 259.194, 294.355 270.570 C 296.073 283.104, 307.785 293.916, 319.712 293.978 C 329.614 294.030, 339.684 287.384, 343.923 278 C 349.245 266.220, 343.650 250.525, 331.978 244.489 C 328.398 242.638, 316.721 241.642, 312.994 242.871 M 311.910 250.140 C 307.286 252.574, 304.482 255.602, 302.534 260.264 L 300.973 264 308.987 264 L 317 264 317 256.559 C 317 252.466, 316.663 248.923, 316.250 248.684 C 315.837 248.445, 313.885 249.100, 311.910 250.140 M 323.624 248.710 C 323.281 249.053, 323 252.633, 323 256.667 L 323 264 331 264 C 335.400 264, 339 263.761, 339 263.468 C 339 261.637, 335.625 255.407, 333.743 253.764 C 330.679 251.088, 324.388 247.946, 323.624 248.710 M 301.744 273.444 C 302.663 278.251, 312.165 287, 316.468 287 C 316.761 287, 317 283.400, 317 279 L 317 271 309.139 271 C 301.341 271, 301.281 271.020, 301.744 273.444 M 323.208 278.750 C 323.494 286.330, 323.554 286.492, 325.942 286.155 C 330.879 285.456, 339 276.678, 339 272.040 C 339 271.406, 335.858 271, 330.958 271 L 322.916 271 323.208 278.750 M 168 300.670 C 155.075 313.097, 139.643 328.016, 133.707 333.823 L 122.913 344.380 126.207 347.655 L 129.500 350.931 139.511 341.216 C 163.373 318.057, 190.328 292.438, 191.604 291.704 C 193.091 290.848, 195.586 292.962, 213.786 310.500 C 219.493 316, 226.489 322.621, 229.332 325.213 L 234.500 329.926 234.806 323.713 C 235.106 317.634, 235.030 317.426, 231.306 314.061 C 229.213 312.170, 219.920 303.282, 210.655 294.311 C 201.390 285.340, 193.290 278.017, 192.655 278.038 C 192.020 278.059, 180.925 288.243, 168 300.670 M 230.500 293.827 C 224.438 299.422, 224.442 299.347, 229.973 303.978 L 235 308.186 235 299.593 C 235 294.867, 234.662 291.013, 234.250 291.029 C 233.838 291.045, 232.150 292.305, 230.500 293.827 M 179.453 311.764 C 172.827 318.219, 161.914 328.741, 155.203 335.146 L 143 346.793 143 386.896 L 143 427 153 427 L 163 427 163 388.607 C 163 354.520, 163.177 350.146, 164.582 349.607 C 165.452 349.273, 177.062 349, 190.382 349 C 207.885 349, 214.933 349.333, 215.800 350.200 C 216.691 351.091, 217 361.133, 217 389.200 L 217 427 226 427 L 235 427 235 383.120 L 235 339.241 231.164 335.870 C 229.054 334.017, 219.809 325.300, 210.619 316.500 C 201.429 307.700, 193.368 300.394, 192.705 300.264 C 192.042 300.134, 186.079 305.309, 179.453 311.764 M 344.046 319.915 C 343.419 321.087, 343 329.837, 343 341.779 C 343 359.798, 343.174 361.847, 344.829 363.345 C 346.399 364.766, 349.419 365, 366.206 365 C 381.583 365, 385.999 364.706, 386.897 363.624 C 387.696 362.661, 387.959 355.666, 387.770 340.374 L 387.500 318.500 366.296 318.230 C 346.134 317.974, 345.040 318.057, 344.046 319.915 M 276.466 325.230 C 276.198 325.929, 276.097 349, 276.240 376.500 L 276.500 426.500 298.250 426.770 L 320 427.039 320 376.520 C 320 348.734, 320.113 325.663, 320.250 325.250 C 320.387 324.837, 310.702 324.379, 298.726 324.230 C 281.851 324.022, 276.843 324.246, 276.466 325.230 M 350.692 324.642 C 350.311 325.022, 350 332.683, 350 341.667 L 350 358 366.024 358 L 382.048 358 381.774 341.250 L 381.500 324.500 366.442 324.225 C 358.160 324.074, 351.072 324.261, 350.692 324.642 M 169.198 361.250 L 169.500 366.500 189.750 366.771 L 210 367.041 210 361.521 L 210 356 189.448 356 L 168.895 356 169.198 361.250 M 169 378 L 169 383 189.500 383 L 210 383 210 378 L 210 373 189.500 373 L 169 373 169 378 M 294.570 375.678 C 293.536 378.374, 296.478 380.292, 302.403 380.784 C 309.421 381.366, 314.637 380.389, 315.421 378.346 C 316.699 375.015, 314.144 374, 304.485 374 C 296.730 374, 295.109 374.274, 294.570 375.678 M 344.046 375.915 C 343.439 377.048, 343 384.798, 343 394.363 C 343 408.024, 343.270 411.127, 344.571 412.429 C 346.759 414.616, 385.100 414.790, 386.901 412.620 C 387.693 411.665, 387.962 405.572, 387.773 392.870 L 387.500 374.500 366.296 374.230 C 346.134 373.974, 345.040 374.057, 344.046 375.915 M 350 394 L 350 407 366 407 L 382 407 382 394 L 382 381 366 381 L 350 381 350 394 M 169.193 394.250 L 169.500 398.500 189.750 398.771 L 210 399.041 210 394.521 L 210 390 189.443 390 L 168.885 390 169.193 394.250 M 169 416.500 L 169 427 189.500 427 L 210 427 210 416.500 L 210 406 189.500 406 L 169 406 169 416.500" stroke="none" fill="#edf0f2" fill-rule="evenodd"/><path d="M 63.028 1.562 C 32.141 8.258, 7.896 32.688, 1.524 63.537 C 0.191 69.993, -0 94.072, -0 256 C -0 458.931, -0.322 447.668, 5.920 462.807 C 13.907 482.175, 29.754 498.063, 48.999 506 C 64.363 512.335, 52.798 512, 256 512 C 459.202 512, 447.637 512.335, 463.001 506 C 486.440 496.334, 505.200 474.111, 509.997 450.330 C 510.643 447.123, 511.584 443.719, 512.086 442.764 C 513.212 440.625, 513.339 67.672, 512.214 68.368 C 511.782 68.635, 510.900 66.066, 510.253 62.659 C 505.653 38.407, 486.739 15.789, 462.807 5.920 C 447.653 -0.329, 459.055 -0.008, 255.292 0.079 C 99.819 0.146, 68.444 0.388, 63.028 1.562 M 192.500 53.668 C 179.017 55.319, 166.431 62.441, 158.842 72.715 C 147.677 87.827, 146.420 109.359, 155.777 125.200 C 157.370 127.896, 157.348 128.068, 155.218 129.560 C 152.651 131.358, 152.267 135.505, 154.585 136.394 C 156.758 137.228, 165 131.190, 165 128.764 C 165 127.720, 163.932 125.434, 162.626 123.683 C 158.580 118.257, 155.999 109.685, 156.011 101.712 C 156.036 84.819, 164.516 71.311, 179.807 63.806 C 186.082 60.726, 187.156 60.521, 197 60.521 C 206.805 60.521, 207.934 60.734, 214.065 63.745 C 222.654 67.964, 230.178 75.491, 234.173 83.863 C 236.999 89.785, 237.339 91.476, 237.415 99.989 C 237.510 110.617, 236.136 116.219, 231.820 122.800 C 228.234 128.269, 228.280 129.371, 232.237 132.742 C 242.736 141.685, 249.498 151.079, 253.160 161.810 C 256.511 171.627, 256.491 189.629, 253.117 199.403 C 249.935 208.624, 241.792 220.371, 234.524 226.227 C 227.119 232.192, 216.080 237.541, 209.250 238.472 L 204 239.188 204 235.316 C 204 231.350, 204.608 230.150, 211.007 221.500 C 237.143 186.169, 237.277 185.963, 235.464 183.960 C 234.187 182.550, 233.291 182.309, 231.963 183.020 C 230.981 183.546, 225.558 190.394, 219.912 198.238 C 207.572 215.384, 205.409 218.075, 204.611 217.278 C 204.275 216.942, 204 204.172, 204 188.901 C 204 162.055, 203.934 161.114, 202.009 160.503 C 200.914 160.155, 199.564 160.152, 199.009 160.494 C 198.408 160.866, 198 166.761, 198 175.059 C 198 182.727, 197.689 189, 197.309 189 C 196.930 189, 192.268 184.725, 186.950 179.500 C 181.631 174.275, 176.572 170, 175.707 170 C 174.842 170, 173.831 170.958, 173.459 172.128 C 172.899 173.894, 174.927 176.403, 185.392 186.892 L 198 199.528 198 219.764 L 198 240 195.065 240 C 189.419 240, 177.447 236.945, 171.250 233.923 L 165 230.875 165 199.341 C 165 164.031, 164.539 160.739, 158.264 151.238 C 150.407 139.340, 139.745 133.600, 125.500 133.600 C 109.511 133.600, 96.755 141.537, 89.757 155.842 L 86.500 162.500 86.214 202 C 85.908 244.202, 85.738 242.355, 90.876 252.803 C 94.921 261.030, 106.331 269.479, 116.729 271.948 L 121.957 273.189 122.229 292.345 L 122.500 311.500 125 311.500 L 127.500 311.500 128 292.581 L 128.500 273.663 135 271.520 C 138.575 270.342, 143.300 268.431, 145.500 267.274 C 153.043 263.305, 161.224 252.700, 163.389 244.081 C 164.730 238.742, 164.458 238.767, 176 242.893 C 182.179 245.102, 186.333 245.941, 191.212 245.966 L 197.925 246 198.212 255.250 C 198.496 264.373, 198.534 264.500, 201 264.500 C 203.444 264.500, 203.511 264.299, 204 255.510 C 204.445 247.503, 204.719 246.483, 206.500 246.184 C 210.139 245.573, 222.727 241.180, 226.815 239.094 C 242.400 231.143, 253.530 217.934, 259.335 200.497 C 261.638 193.579, 262 190.838, 262 180.299 C 262 169.165, 261.730 167.358, 258.892 159.515 C 255.086 148.996, 247.936 137.810, 241.504 132.313 L 236.688 128.196 238.972 123.348 C 244.751 111.080, 246.057 102.186, 243.611 91.750 C 238.534 70.091, 222.215 55.707, 200.500 53.751 C 197.750 53.504, 194.150 53.466, 192.500 53.668 M 0.490 256 C 0.490 359.125, 0.607 401.313, 0.750 349.750 C 0.893 298.188, 0.893 213.813, 0.750 162.250 C 0.607 110.688, 0.490 152.875, 0.490 256 M 116.500 140.912 C 108.477 143.145, 100.720 149.156, 96.578 156.349 C 92.270 163.833, 91.814 169.015, 92.169 206.500 C 92.485 239.885, 92.600 241.716, 94.661 246.176 C 97.959 253.312, 104.582 259.903, 111.728 263.161 C 121.351 267.548, 122 267.309, 122 259.388 L 122 252.776 112.010 242.638 C 101.577 232.050, 99.948 229, 104.726 229 C 106.772 229, 109.269 230.803, 114.726 236.225 L 122 243.450 122 233.060 L 122 222.670 115.999 216.420 C 112.160 212.423, 110.206 209.627, 110.576 208.663 C 111.696 205.743, 114.038 206.040, 117.772 209.575 L 121.500 213.104 121.809 210.625 C 122.192 207.556, 124.219 205.763, 126.373 206.590 C 127.588 207.056, 128 208.536, 128 212.440 C 128 215.315, 128.313 217.980, 128.696 218.362 C 129.078 218.745, 132.428 216.044, 136.140 212.361 C 141.914 206.631, 143.114 205.850, 144.445 206.954 C 147.272 209.301, 146.090 211.452, 137 220.500 C 128.012 229.446, 128 229.465, 128 234.562 C 128 237.370, 128.310 239.977, 128.689 240.356 C 129.068 240.735, 131.255 239.204, 133.548 236.953 C 137.414 233.159, 137.837 232.980, 139.359 234.502 C 140.261 235.404, 141 236.604, 141 237.169 C 141 237.733, 138.053 241.247, 134.452 244.977 L 127.903 251.760 128.202 258.630 C 128.472 264.857, 128.708 265.530, 130.720 265.816 C 134.258 266.319, 145.377 260.432, 149.491 255.878 C 151.547 253.602, 154.415 249.211, 155.865 246.120 L 158.500 240.500 158.500 203 L 158.500 165.500 155.753 159.726 C 152.251 152.366, 148.002 147.720, 141.231 143.846 C 136.674 141.239, 134.607 140.717, 127.677 140.423 C 123.180 140.233, 118.150 140.453, 116.500 140.912 M 306.193 177.250 C 299.253 183.988, 286.583 196.327, 278.037 204.672 C 269.492 213.016, 260.913 221.341, 258.974 223.172 C 253.979 227.888, 221.116 259.317, 211.122 268.936 C 206.514 273.371, 202.436 277, 202.059 277 C 201.682 277, 200.052 275.611, 198.437 273.914 C 192.767 267.956, 192.921 267.912, 181.706 278.699 C 167.364 292.492, 125.631 332.575, 119.832 338.125 C 117.175 340.669, 115 343.413, 115 344.223 C 115 345.600, 126.977 358.139, 128.924 358.802 C 129.413 358.968, 131.429 357.684, 133.406 355.948 C 135.383 354.213, 137.080 352.952, 137.177 353.146 C 137.274 353.341, 137.612 371.500, 137.927 393.500 L 138.500 433.500 271.621 433.754 L 404.742 434.007 405.477 362.754 C 405.882 323.564, 406.401 291.301, 406.632 291.057 C 406.863 290.814, 409.641 293.176, 412.805 296.307 C 415.969 299.438, 419.229 302, 420.049 302 C 422.397 302, 440 283.792, 440 281.364 C 440 279.284, 429.261 268.624, 364 205.923 C 325.921 169.338, 321.254 165, 319.978 165 C 319.336 165, 313.132 170.512, 306.193 177.250 M 316.912 175.770 C 314.121 178.714, 303.736 188.788, 261.007 230 C 245.896 244.575, 228.405 261.450, 222.140 267.500 C 215.874 273.550, 210.091 279.133, 209.289 279.906 C 208.021 281.129, 208.686 282.167, 214.392 287.874 L 220.954 294.435 232.227 283.461 C 242.863 273.107, 289.827 227.681, 309.500 208.718 C 314.450 203.946, 319.244 200.033, 320.153 200.021 C 321.678 200.002, 332.946 210.488, 369.500 245.944 C 390.697 266.504, 419.099 293.467, 419.864 293.757 C 420.238 293.899, 423.359 291.173, 426.801 287.701 L 433.058 281.388 410.779 259.947 C 398.526 248.155, 383.325 233.526, 377 227.438 C 370.675 221.349, 363.631 214.598, 361.346 212.434 C 359.061 210.270, 348.991 200.625, 338.969 191 C 328.947 181.375, 320.466 173.397, 320.123 173.270 C 319.781 173.144, 318.335 174.269, 316.912 175.770 M 310.486 216.764 C 266.512 259.380, 248.014 277.202, 245.250 279.612 L 242 282.445 242 354.723 L 242 427 256 427 L 270 427 270 373.700 C 270 333.578, 270.297 320.103, 271.200 319.200 C 272.071 318.329, 279.448 318, 298.118 318 C 312.263 318, 324.548 318.273, 325.418 318.607 C 326.834 319.150, 327 324.886, 327 373.107 L 327 427 363.500 427 L 400 427 400 355.687 L 400 284.374 390.250 274.915 C 347.361 233.304, 320.732 207.984, 319.888 208.014 C 319.675 208.021, 315.444 211.959, 310.486 216.764 M 312.994 242.871 C 301.153 246.773, 292.795 259.194, 294.355 270.570 C 296.073 283.104, 307.785 293.916, 319.712 293.978 C 329.614 294.030, 339.684 287.384, 343.923 278 C 349.245 266.220, 343.650 250.525, 331.978 244.489 C 328.398 242.638, 316.721 241.642, 312.994 242.871 M 311.910 250.140 C 307.286 252.574, 304.482 255.602, 302.534 260.264 L 300.973 264 308.987 264 L 317 264 317 256.559 C 317 252.466, 316.663 248.923, 316.250 248.684 C 315.837 248.445, 313.885 249.100, 311.910 250.140 M 323.624 248.710 C 323.281 249.053, 323 252.633, 323 256.667 L 323 264 331 264 C 335.400 264, 339 263.761, 339 263.468 C 339 261.637, 335.625 255.407, 333.743 253.764 C 330.679 251.088, 324.388 247.946, 323.624 248.710 M 301.744 273.444 C 302.663 278.251, 312.165 287, 316.468 287 C 316.761 287, 317 283.400, 317 279 L 317 271 309.139 271 C 301.341 271, 301.281 271.020, 301.744 273.444 M 323.208 278.750 C 323.494 286.330, 323.554 286.492, 325.942 286.155 C 330.879 285.456, 339 276.678, 339 272.040 C 339 271.406, 335.858 271, 330.958 271 L 322.916 271 323.208 278.750 M 168 300.670 C 155.075 313.097, 139.643 328.016, 133.707 333.823 L 122.913 344.380 126.207 347.655 L 129.500 350.931 139.511 341.216 C 163.373 318.057, 190.328 292.438, 191.604 291.704 C 193.091 290.848, 195.586 292.962, 213.786 310.500 C 219.493 316, 226.489 322.621, 229.332 325.213 L 234.500 329.926 234.806 323.713 C 235.106 317.634, 235.030 317.426, 231.306 314.061 C 229.213 312.170, 219.920 303.282, 210.655 294.311 C 201.390 285.340, 193.290 278.017, 192.655 278.038 C 192.020 278.059, 180.925 288.243, 168 300.670 M 230.500 293.827 C 224.438 299.422, 224.442 299.347, 229.973 303.978 L 235 308.186 235 299.593 C 235 294.867, 234.662 291.013, 234.250 291.029 C 233.838 291.045, 232.150 292.305, 230.500 293.827 M 179.453 311.764 C 172.827 318.219, 161.914 328.741, 155.203 335.146 L 143 346.793 143 386.896 L 143 427 153 427 L 163 427 163 388.607 C 163 354.520, 163.177 350.146, 164.582 349.607 C 165.452 349.273, 177.062 349, 190.382 349 C 207.885 349, 214.933 349.333, 215.800 350.200 C 216.691 351.091, 217 361.133, 217 389.200 L 217 427 226 427 L 235 427 235 383.120 L 235 339.241 231.164 335.870 C 229.054 334.017, 219.809 325.300, 210.619 316.500 C 201.429 307.700, 193.368 300.394, 192.705 300.264 C 192.042 300.134, 186.079 305.309, 179.453 311.764 M 344.046 319.915 C 343.419 321.087, 343 329.837, 343 341.779 C 343 359.798, 343.174 361.847, 344.829 363.345 C 346.399 364.766, 349.419 365, 366.206 365 C 381.583 365, 385.999 364.706, 386.897 363.624 C 387.696 362.661, 387.959 355.666, 387.770 340.374 L 387.500 318.500 366.296 318.230 C 346.134 317.974, 345.040 318.057, 344.046 319.915 M 276.466 325.230 C 276.198 325.929, 276.097 349, 276.240 376.500 L 276.500 426.500 298.250 426.770 L 320 427.039 320 376.520 C 320 348.734, 320.113 325.663, 320.250 325.250 C 320.387 324.837, 310.702 324.379, 298.726 324.230 C 281.851 324.022, 276.843 324.246, 276.466 325.230 M 350.692 324.642 C 350.311 325.022, 350 332.683, 350 341.667 L 350 358 366.024 358 L 382.048 358 381.774 341.250 L 381.500 324.500 366.442 324.225 C 358.160 324.074, 351.072 324.261, 350.692 324.642 M 169.198 361.250 L 169.500 366.500 189.750 366.771 L 210 367.041 210 361.521 L 210 356 189.448 356 L 168.895 356 169.198 361.250 M 169 378 L 169 383 189.500 383 L 210 383 210 378 L 210 373 189.500 373 L 169 373 169 378 M 294.570 375.678 C 293.536 378.374, 296.478 380.292, 302.403 380.784 C 309.421 381.366, 314.637 380.389, 315.421 378.346 C 316.699 375.015, 314.144 374, 304.485 374 C 296.730 374, 295.109 374.274, 294.570 375.678 M 344.046 375.915 C 343.439 377.048, 343 384.798, 343 394.363 C 343 408.024, 343.270 411.127, 344.571 412.429 C 346.759 414.616, 385.100 414.790, 386.901 412.620 C 387.693 411.665, 387.962 405.572, 387.773 392.870 L 387.500 374.500 366.296 374.230 C 346.134 373.974, 345.040 374.057, 344.046 375.915 M 350 394 L 350 407 366 407 L 382 407 382 394 L 382 381 366 381 L 350 381 350 394 M 169.193 394.250 L 169.500 398.500 189.750 398.771 L 210 399.041 210 394.521 L 210 390 189.443 390 L 168.885 390 169.193 394.250 M 169 416.500 L 169 427 189.500 427 L 210 427 210 416.500 L 210 406 189.500 406 L 169 406 169 416.500" stroke="none" fill="#4584a4" fill-rule="evenodd"/></svg>