<svg xmlns="http://www.w3.org/2000/svg" width="512" height="512" viewBox="0 0 512 512" version="1.1"><path d="M 0 256.002 L 0 512.004 256.250 511.752 L 512.500 511.500 512.752 255.750 L 513.004 0 256.502 0 L 0 0 0 256.002 M 0.492 256.500 C 0.492 397.300, 0.608 454.751, 0.750 384.170 C 0.892 313.588, 0.892 198.388, 0.750 128.170 C 0.608 57.951, 0.492 115.700, 0.492 256.500 M 6 256 L 6 506 256 506 L 506 506 506 256 L 506 6 256 6 L 6 6 6 256 M 175 39.102 C 168.505 40.812, 158.708 46.467, 152.727 51.959 C 136.090 67.234, 131.540 91.149, 141.266 112.201 L 144.671 119.570 142.336 121.332 C 141.051 122.301, 140 124.145, 140 125.430 C 140 129, 143.323 129.274, 147.735 126.069 C 154.598 121.082, 154.627 120.934, 150.233 113.305 C 145.325 104.786, 143.564 98.441, 143.625 89.500 C 143.686 80.529, 146.127 72.522, 151.016 65.264 C 155.604 58.450, 158.869 55.297, 165.080 51.678 C 180.891 42.465, 197.220 42.744, 212.500 52.486 C 219.409 56.891, 224.564 62.926, 228.586 71.320 C 231.841 78.113, 232 78.962, 232 89.597 C 232 99.411, 231.690 101.452, 229.422 106.581 C 228.004 109.788, 225.979 113.626, 224.922 115.110 C 222.178 118.963, 222.533 121.406, 226.250 124.243 C 236.472 132.044, 245.330 144.344, 249.279 156.216 C 252.070 164.610, 252.344 186.600, 249.762 195.037 C 245.663 208.434, 237.032 220.271, 225.180 228.753 C 218.316 233.665, 207.839 238.344, 201.192 239.468 L 197 240.176 197.019 234.838 C 197.037 229.972, 197.502 228.881, 202.272 222.500 C 211.156 210.618, 228.609 186.639, 230.357 183.913 C 231.920 181.476, 231.908 181.227, 230.153 179.639 C 226.952 176.742, 225.270 178.289, 213.455 195 C 211.316 198.025, 209.296 200.725, 208.967 201 C 208.638 201.275, 206.868 203.750, 205.034 206.500 C 203.200 209.250, 200.755 212.550, 199.600 213.833 L 197.500 216.165 197 186.124 C 196.526 157.617, 196.399 156.009, 194.514 154.633 C 193.137 153.627, 191.988 153.471, 190.764 154.126 C 189.199 154.964, 189 156.764, 189 170.119 C 189 178.878, 188.615 185.027, 188.078 184.833 C 187.571 184.650, 182.597 180.084, 177.025 174.687 C 169.479 167.378, 166.334 164.955, 164.697 165.187 C 163.181 165.403, 162.407 166.303, 162.199 168.090 C 161.945 170.273, 164.029 172.697, 175.449 183.507 L 189 196.334 189 218.667 L 189 241 186.184 241 C 178.393 241, 161.582 236.197, 156.215 232.438 C 154.006 230.891, 154 230.803, 153.985 198.193 C 153.969 162.788, 153.408 157.685, 148.454 147.909 C 147.046 145.130, 143.096 140.076, 139.678 136.678 C 131.263 128.315, 122.912 125, 110.255 125 C 90.369 125, 76.316 134.992, 68.952 154.366 C 67.131 159.159, 67.001 162.269, 67.001 201.216 C 67 246.078, 66.740 243.478, 72.362 254.811 C 76.976 264.115, 89.323 273.321, 100.750 275.978 L 106 277.199 106 297.477 C 106 318.891, 106.371 320.651, 110.702 319.820 C 112.345 319.505, 112.543 317.669, 113 298.501 L 113.500 277.528 119.692 275.858 C 135.459 271.606, 149.074 258.783, 151.394 246 C 151.744 244.075, 152.444 241.846, 152.950 241.046 C 153.890 239.560, 154.490 239.708, 161.169 243.075 C 164.777 244.893, 179.103 248, 183.880 248 L 188.928 248 189.214 257.750 L 189.500 267.500 192.183 267.810 C 196.070 268.259, 197.211 265.370, 196.824 256.053 L 196.500 248.251 203.500 246.501 C 229.627 239.971, 248.130 222.837, 256.401 197.512 C 258.708 190.450, 258.996 187.979, 258.967 175.528 C 258.935 162.113, 258.789 161.121, 255.630 152.817 C 251.049 140.780, 246.648 133.746, 238.612 125.620 L 231.723 118.654 234.862 112.476 C 236.588 109.078, 238 105.732, 238 105.042 C 238 104.351, 238.745 100.698, 239.656 96.923 C 241.211 90.481, 241.206 89.583, 239.564 82.280 C 236.923 70.531, 236.213 68.635, 232.093 62.322 C 221.590 46.227, 206.380 37.909, 187.782 38.090 C 182.677 38.140, 176.925 38.595, 175 39.102 M 101.500 132.925 C 87.554 136.813, 77.291 147.671, 74.964 161 C 74.208 165.329, 73.941 180.033, 74.164 205.024 L 74.500 242.548 77.787 249.222 C 79.791 253.290, 82.822 257.434, 85.554 259.838 C 90.632 264.309, 99.836 269, 103.527 269 C 105.924 269, 106 268.783, 106 261.942 L 106 254.884 95.250 243.882 C 84.024 232.393, 82.132 228.835, 86.891 228.162 C 88.764 227.897, 91.091 229.625, 97.641 236.140 L 106 244.456 106 233.248 L 106 222.040 99.981 215.770 C 93.851 209.383, 92.916 206.697, 96.127 204.685 C 97.409 203.881, 98.576 204.465, 101.627 207.437 C 105.065 210.786, 105.534 210.985, 105.806 209.209 C 106.230 206.437, 109.369 203.820, 111.355 204.583 C 112.617 205.067, 113 206.549, 113 210.940 C 113 214.090, 113.313 216.980, 113.696 217.363 C 114.080 217.746, 117.596 214.878, 121.510 210.990 C 128.846 203.703, 131.197 202.894, 132.559 207.187 C 133.062 208.771, 131.090 211.327, 123.097 219.449 L 113 229.710 113 235.188 C 113 238.201, 113.281 240.947, 113.624 241.291 C 113.967 241.634, 116.105 240.139, 118.374 237.968 C 122.794 233.740, 123.920 233.320, 125.800 235.200 C 128.011 237.411, 127.040 239.307, 119.955 246.614 L 112.910 253.880 113.205 261.190 C 113.489 268.238, 113.594 268.511, 116.111 268.803 C 122.026 269.489, 135.732 260.553, 140.606 252.832 C 145.727 244.719, 146.133 240.420, 145.803 197.767 L 145.500 158.500 142.682 152.761 C 136.663 140.505, 125.273 132.945, 112 132.398 C 107.875 132.228, 103.150 132.465, 101.500 132.925 M 312.500 167.667 C 308.100 171.857, 298.644 180.959, 291.487 187.893 C 269.988 208.721, 248.320 229.520, 229.394 247.496 C 219.552 256.844, 207.690 268.206, 203.034 272.746 C 198.378 277.286, 194.328 280.994, 194.034 280.986 C 193.740 280.978, 191.511 279.178, 189.080 276.986 C 186.649 274.794, 184.020 273, 183.237 273 C 182.455 273, 165.769 288.413, 146.157 307.250 C 97.020 354.448, 98.709 352.706, 99.404 355.475 C 100.204 358.662, 112.008 369.958, 114.563 369.981 C 115.698 369.991, 117.948 368.616, 119.563 366.926 L 122.500 363.851 123.162 368.676 C 123.527 371.329, 123.864 391.163, 123.912 412.750 L 124 452 269.500 452 L 415 452 415.143 416.750 C 415.221 397.363, 415.559 362.246, 415.893 338.714 L 416.500 295.929 422.801 301.964 C 426.698 305.697, 429.963 308, 431.357 308 C 434.782 308, 453 289.370, 453 285.868 C 453 283.730, 448.932 279.295, 431.893 262.860 C 420.284 251.662, 408.222 240.025, 405.088 237 C 400.054 232.140, 370.353 203.717, 359.469 193.342 C 357.252 191.229, 348.597 182.863, 340.236 174.750 C 329.620 164.450, 324.350 160.007, 322.767 160.024 C 321.329 160.039, 317.575 162.834, 312.500 167.667 M 308.886 181.284 C 301.398 188.553, 288.123 201.323, 279.386 209.662 C 270.649 218.001, 259.421 228.801, 254.436 233.662 C 249.450 238.523, 238.875 248.731, 230.936 256.346 C 222.996 263.961, 212.838 273.741, 208.363 278.078 L 200.226 285.964 207.302 293.026 L 214.377 300.087 223.939 290.725 C 239.618 275.374, 261.401 254.371, 288.859 228.133 C 318.451 199.855, 321.491 197.029, 322.342 197.015 C 322.806 197.007, 324.381 197.941, 325.842 199.090 C 328.446 201.139, 358.419 229.761, 382.780 253.465 C 389.543 260.045, 395.475 265.676, 395.963 265.977 C 396.450 266.278, 404.577 274.121, 414.023 283.406 L 431.196 300.286 438.344 293.139 L 445.491 285.992 436.495 277.423 C 431.548 272.711, 423.446 264.950, 418.491 260.177 C 413.535 255.405, 397.110 239.585, 381.991 225.023 C 366.871 210.460, 349.817 194.035, 344.093 188.523 C 338.369 183.010, 331.262 176.137, 328.299 173.250 C 325.336 170.363, 322.819 168.015, 322.706 168.034 C 322.593 168.052, 316.374 174.015, 308.886 181.284 M 313.954 214.329 C 309.261 218.823, 294.689 232.850, 281.571 245.500 C 268.454 258.150, 256.771 269.320, 255.611 270.321 C 254.450 271.323, 249.787 275.769, 245.250 280.201 L 237 288.259 237 366.629 L 237 445 252 445 L 267 445 267 386.622 C 267 338.400, 267.238 328.047, 268.371 327.107 C 269.344 326.300, 278.408 326.047, 299.621 326.235 L 329.500 326.500 330 385.500 L 330.500 444.500 369.750 444.762 L 409 445.023 409 366.781 L 409 288.538 404.250 284.165 C 401.637 281.759, 395 275.465, 389.500 270.176 C 359.854 241.671, 352.285 234.377, 339.500 221.987 C 331.800 214.526, 324.822 207.912, 323.993 207.290 C 322.765 206.368, 320.907 207.670, 313.954 214.329 M 314.266 244.050 C 305.915 246.629, 299.599 252.868, 295.938 262.158 C 292.291 271.410, 294.476 281.907, 301.739 290.029 C 307.722 296.720, 313.086 299.005, 322.739 298.978 C 331.897 298.952, 336.877 297.056, 342.466 291.468 C 355.877 278.057, 352.943 256.083, 336.451 246.418 C 331.501 243.518, 319.975 242.287, 314.266 244.050 M 312.963 252.607 C 308.462 255.082, 304.991 259.173, 303.083 264.250 L 302.050 267 310.525 267 L 319 267 319 259.059 C 319 254.691, 318.647 250.900, 318.216 250.634 C 317.785 250.367, 315.421 251.255, 312.963 252.607 M 326.600 250.734 C 326.270 251.063, 326 254.858, 326 259.167 L 326 267 334.567 267 C 344.043 267, 344.037 267.007, 340.432 259.914 C 338.381 255.877, 328.208 249.126, 326.600 250.734 M 302.766 277.250 C 304.340 283.374, 310.566 289.713, 316.750 291.489 C 318.959 292.123, 319 291.977, 319 283.567 L 319 275 310.594 275 C 302.371 275, 302.200 275.049, 302.766 277.250 M 326.210 283.250 C 326.497 291.406, 326.529 291.496, 329 291.175 C 332.472 290.723, 338.070 286.062, 340.734 281.405 C 344.266 275.229, 344.042 275, 334.460 275 L 325.919 275 326.210 283.250 M 179.606 285.553 C 174.779 289.900, 139.232 323.963, 121.070 341.645 L 107.568 354.790 111.034 358.352 L 114.500 361.913 126.039 350.706 C 164.342 313.507, 181.463 297.462, 183.162 297.175 C 184.533 296.943, 191.423 302.963, 207.045 318.043 L 229 339.237 229 332.282 L 229 325.328 221.750 318.468 C 217.762 314.695, 207.697 304.946, 199.381 296.804 C 191.066 288.662, 184.091 282.010, 183.881 282.023 C 183.672 282.036, 181.748 283.624, 179.606 285.553 M 223.701 300.658 L 218.902 305.332 223.701 310.213 L 228.500 315.094 228.803 310.014 C 228.970 307.219, 228.970 302.919, 228.803 300.459 L 228.500 295.984 223.701 300.658 M 169.752 318.673 C 155.451 332.610, 134.896 352.336, 131.239 355.631 L 128.979 357.669 129.239 401.084 L 129.500 444.500 140 444.500 L 150.500 444.500 151 402.500 L 151.500 360.500 179.878 360.234 C 206.013 359.989, 208.362 360.108, 209.596 361.734 C 210.664 363.141, 210.943 371.774, 210.968 404.250 L 211 445 220 445 L 229 445 229 397.163 L 229 349.326 208.840 329.913 C 186.405 308.310, 187.165 309.029, 184.748 307.129 C 183.180 305.897, 181.660 307.067, 169.752 318.673 M 349.200 327.200 C 347.497 328.903, 347.497 374.097, 349.200 375.800 C 350.901 377.501, 394.099 377.501, 395.800 375.800 C 397.503 374.097, 397.503 328.903, 395.800 327.200 C 394.099 325.499, 350.901 325.499, 349.200 327.200 M 275.242 388.750 L 275.500 444.500 299 444.500 L 322.500 444.500 322.758 388.750 L 323.017 333 299 333 L 274.983 333 275.242 388.750 M 355 351.524 L 355 370.047 372.250 369.774 L 389.500 369.500 389.773 351.250 L 390.045 333 372.523 333 L 355 333 355 351.524 M 158 373.519 L 158 379.038 180.250 378.769 L 202.500 378.500 202.802 373.250 L 203.105 368 180.552 368 L 158 368 158 373.519 M 158 391.500 L 158 397.038 180.250 396.769 L 202.500 396.500 202.500 391.500 L 202.500 386.500 180.250 386.231 L 158 385.962 158 391.500 M 297.228 387.039 C 294.372 388.186, 293.404 390.577, 295.011 392.513 C 295.950 393.645, 298.596 394, 306.087 394 C 315.181 394, 316.018 393.834, 317.098 391.817 C 318.093 389.958, 317.933 389.364, 316.022 387.817 C 314.301 386.423, 312.116 386.015, 306.639 386.063 C 302.713 386.098, 298.478 386.537, 297.228 387.039 M 351 386.729 C 350.175 387.043, 349.169 387.795, 348.765 388.400 C 347.884 389.720, 347.740 426.158, 348.607 428.418 C 349.136 429.798, 352.189 430, 372.500 430 C 392.811 430, 395.864 429.798, 396.393 428.418 C 396.727 427.548, 397 418.087, 397 407.393 L 397 387.950 394.435 386.975 C 391.750 385.954, 353.603 385.738, 351 386.729 M 355 408.524 L 355 423.047 372.250 422.774 L 389.500 422.500 389.777 408.250 L 390.055 394 372.527 394 L 355 394 355 408.524 M 158 409 L 158 414.038 180.250 413.769 L 202.500 413.500 202.500 409 L 202.500 404.500 180.250 404.231 L 158 403.962 158 409 M 158 433.500 L 158 445.038 180.250 444.769 L 202.500 444.500 202.500 433.500 L 202.500 422.500 180.250 422.231 L 158 421.962 158 433.500" stroke="none" fill="#4a88a6" fill-rule="evenodd"/><path d="M 6 256 L 6 506 256 506 L 506 506 506 256 L 506 6 256 6 L 6 6 6 256 M 175 39.102 C 168.505 40.812, 158.708 46.467, 152.727 51.959 C 136.090 67.234, 131.540 91.149, 141.266 112.201 L 144.671 119.570 142.336 121.332 C 141.051 122.301, 140 124.145, 140 125.430 C 140 129, 143.323 129.274, 147.735 126.069 C 154.598 121.082, 154.627 120.934, 150.233 113.305 C 145.325 104.786, 143.564 98.441, 143.625 89.500 C 143.686 80.529, 146.127 72.522, 151.016 65.264 C 155.604 58.450, 158.869 55.297, 165.080 51.678 C 180.891 42.465, 197.220 42.744, 212.500 52.486 C 219.409 56.891, 224.564 62.926, 228.586 71.320 C 231.841 78.113, 232 78.962, 232 89.597 C 232 99.411, 231.690 101.452, 229.422 106.581 C 228.004 109.788, 225.979 113.626, 224.922 115.110 C 222.178 118.963, 222.533 121.406, 226.250 124.243 C 236.472 132.044, 245.330 144.344, 249.279 156.216 C 252.070 164.610, 252.344 186.600, 249.762 195.037 C 245.663 208.434, 237.032 220.271, 225.180 228.753 C 218.316 233.665, 207.839 238.344, 201.192 239.468 L 197 240.176 197.019 234.838 C 197.037 229.972, 197.502 228.881, 202.272 222.500 C 211.156 210.618, 228.609 186.639, 230.357 183.913 C 231.920 181.476, 231.908 181.227, 230.153 179.639 C 226.952 176.742, 225.270 178.289, 213.455 195 C 211.316 198.025, 209.296 200.725, 208.967 201 C 208.638 201.275, 206.868 203.750, 205.034 206.500 C 203.200 209.250, 200.755 212.550, 199.600 213.833 L 197.500 216.165 197 186.124 C 196.526 157.617, 196.399 156.009, 194.514 154.633 C 193.137 153.627, 191.988 153.471, 190.764 154.126 C 189.199 154.964, 189 156.764, 189 170.119 C 189 178.878, 188.615 185.027, 188.078 184.833 C 187.571 184.650, 182.597 180.084, 177.025 174.687 C 169.479 167.378, 166.334 164.955, 164.697 165.187 C 163.181 165.403, 162.407 166.303, 162.199 168.090 C 161.945 170.273, 164.029 172.697, 175.449 183.507 L 189 196.334 189 218.667 L 189 241 186.184 241 C 178.393 241, 161.582 236.197, 156.215 232.438 C 154.006 230.891, 154 230.803, 153.985 198.193 C 153.969 162.788, 153.408 157.685, 148.454 147.909 C 147.046 145.130, 143.096 140.076, 139.678 136.678 C 131.263 128.315, 122.912 125, 110.255 125 C 90.369 125, 76.316 134.992, 68.952 154.366 C 67.131 159.159, 67.001 162.269, 67.001 201.216 C 67 246.078, 66.740 243.478, 72.362 254.811 C 76.976 264.115, 89.323 273.321, 100.750 275.978 L 106 277.199 106 297.477 C 106 318.891, 106.371 320.651, 110.702 319.820 C 112.345 319.505, 112.543 317.669, 113 298.501 L 113.500 277.528 119.692 275.858 C 135.459 271.606, 149.074 258.783, 151.394 246 C 151.744 244.075, 152.444 241.846, 152.950 241.046 C 153.890 239.560, 154.490 239.708, 161.169 243.075 C 164.777 244.893, 179.103 248, 183.880 248 L 188.928 248 189.214 257.750 L 189.500 267.500 192.183 267.810 C 196.070 268.259, 197.211 265.370, 196.824 256.053 L 196.500 248.251 203.500 246.501 C 229.627 239.971, 248.130 222.837, 256.401 197.512 C 258.708 190.450, 258.996 187.979, 258.967 175.528 C 258.935 162.113, 258.789 161.121, 255.630 152.817 C 251.049 140.780, 246.648 133.746, 238.612 125.620 L 231.723 118.654 234.862 112.476 C 236.588 109.078, 238 105.732, 238 105.042 C 238 104.351, 238.745 100.698, 239.656 96.923 C 241.211 90.481, 241.206 89.583, 239.564 82.280 C 236.923 70.531, 236.213 68.635, 232.093 62.322 C 221.590 46.227, 206.380 37.909, 187.782 38.090 C 182.677 38.140, 176.925 38.595, 175 39.102 M 101.500 132.925 C 87.554 136.813, 77.291 147.671, 74.964 161 C 74.208 165.329, 73.941 180.033, 74.164 205.024 L 74.500 242.548 77.787 249.222 C 79.791 253.290, 82.822 257.434, 85.554 259.838 C 90.632 264.309, 99.836 269, 103.527 269 C 105.924 269, 106 268.783, 106 261.942 L 106 254.884 95.250 243.882 C 84.024 232.393, 82.132 228.835, 86.891 228.162 C 88.764 227.897, 91.091 229.625, 97.641 236.140 L 106 244.456 106 233.248 L 106 222.040 99.981 215.770 C 93.851 209.383, 92.916 206.697, 96.127 204.685 C 97.409 203.881, 98.576 204.465, 101.627 207.437 C 105.065 210.786, 105.534 210.985, 105.806 209.209 C 106.230 206.437, 109.369 203.820, 111.355 204.583 C 112.617 205.067, 113 206.549, 113 210.940 C 113 214.090, 113.313 216.980, 113.696 217.363 C 114.080 217.746, 117.596 214.878, 121.510 210.990 C 128.846 203.703, 131.197 202.894, 132.559 207.187 C 133.062 208.771, 131.090 211.327, 123.097 219.449 L 113 229.710 113 235.188 C 113 238.201, 113.281 240.947, 113.624 241.291 C 113.967 241.634, 116.105 240.139, 118.374 237.968 C 122.794 233.740, 123.920 233.320, 125.800 235.200 C 128.011 237.411, 127.040 239.307, 119.955 246.614 L 112.910 253.880 113.205 261.190 C 113.489 268.238, 113.594 268.511, 116.111 268.803 C 122.026 269.489, 135.732 260.553, 140.606 252.832 C 145.727 244.719, 146.133 240.420, 145.803 197.767 L 145.500 158.500 142.682 152.761 C 136.663 140.505, 125.273 132.945, 112 132.398 C 107.875 132.228, 103.150 132.465, 101.500 132.925 M 312.500 167.667 C 308.100 171.857, 298.644 180.959, 291.487 187.893 C 269.988 208.721, 248.320 229.520, 229.394 247.496 C 219.552 256.844, 207.690 268.206, 203.034 272.746 C 198.378 277.286, 194.328 280.994, 194.034 280.986 C 193.740 280.978, 191.511 279.178, 189.080 276.986 C 186.649 274.794, 184.020 273, 183.237 273 C 182.455 273, 165.769 288.413, 146.157 307.250 C 97.020 354.448, 98.709 352.706, 99.404 355.475 C 100.204 358.662, 112.008 369.958, 114.563 369.981 C 115.698 369.991, 117.948 368.616, 119.563 366.926 L 122.500 363.851 123.162 368.676 C 123.527 371.329, 123.864 391.163, 123.912 412.750 L 124 452 269.500 452 L 415 452 415.143 416.750 C 415.221 397.363, 415.559 362.246, 415.893 338.714 L 416.500 295.929 422.801 301.964 C 426.698 305.697, 429.963 308, 431.357 308 C 434.782 308, 453 289.370, 453 285.868 C 453 283.730, 448.932 279.295, 431.893 262.860 C 420.284 251.662, 408.222 240.025, 405.088 237 C 400.054 232.140, 370.353 203.717, 359.469 193.342 C 357.252 191.229, 348.597 182.863, 340.236 174.750 C 329.620 164.450, 324.350 160.007, 322.767 160.024 C 321.329 160.039, 317.575 162.834, 312.500 167.667 M 308.886 181.284 C 301.398 188.553, 288.123 201.323, 279.386 209.662 C 270.649 218.001, 259.421 228.801, 254.436 233.662 C 249.450 238.523, 238.875 248.731, 230.936 256.346 C 222.996 263.961, 212.838 273.741, 208.363 278.078 L 200.226 285.964 207.302 293.026 L 214.377 300.087 223.939 290.725 C 239.618 275.374, 261.401 254.371, 288.859 228.133 C 318.451 199.855, 321.491 197.029, 322.342 197.015 C 322.806 197.007, 324.381 197.941, 325.842 199.090 C 328.446 201.139, 358.419 229.761, 382.780 253.465 C 389.543 260.045, 395.475 265.676, 395.963 265.977 C 396.450 266.278, 404.577 274.121, 414.023 283.406 L 431.196 300.286 438.344 293.139 L 445.491 285.992 436.495 277.423 C 431.548 272.711, 423.446 264.950, 418.491 260.177 C 413.535 255.405, 397.110 239.585, 381.991 225.023 C 366.871 210.460, 349.817 194.035, 344.093 188.523 C 338.369 183.010, 331.262 176.137, 328.299 173.250 C 325.336 170.363, 322.819 168.015, 322.706 168.034 C 322.593 168.052, 316.374 174.015, 308.886 181.284 M 313.954 214.329 C 309.261 218.823, 294.689 232.850, 281.571 245.500 C 268.454 258.150, 256.771 269.320, 255.611 270.321 C 254.450 271.323, 249.787 275.769, 245.250 280.201 L 237 288.259 237 366.629 L 237 445 252 445 L 267 445 267 386.622 C 267 338.400, 267.238 328.047, 268.371 327.107 C 269.344 326.300, 278.408 326.047, 299.621 326.235 L 329.500 326.500 330 385.500 L 330.500 444.500 369.750 444.762 L 409 445.023 409 366.781 L 409 288.538 404.250 284.165 C 401.637 281.759, 395 275.465, 389.500 270.176 C 359.854 241.671, 352.285 234.377, 339.500 221.987 C 331.800 214.526, 324.822 207.912, 323.993 207.290 C 322.765 206.368, 320.907 207.670, 313.954 214.329 M 314.266 244.050 C 305.915 246.629, 299.599 252.868, 295.938 262.158 C 292.291 271.410, 294.476 281.907, 301.739 290.029 C 307.722 296.720, 313.086 299.005, 322.739 298.978 C 331.897 298.952, 336.877 297.056, 342.466 291.468 C 355.877 278.057, 352.943 256.083, 336.451 246.418 C 331.501 243.518, 319.975 242.287, 314.266 244.050 M 312.963 252.607 C 308.462 255.082, 304.991 259.173, 303.083 264.250 L 302.050 267 310.525 267 L 319 267 319 259.059 C 319 254.691, 318.647 250.900, 318.216 250.634 C 317.785 250.367, 315.421 251.255, 312.963 252.607 M 326.600 250.734 C 326.270 251.063, 326 254.858, 326 259.167 L 326 267 334.567 267 C 344.043 267, 344.037 267.007, 340.432 259.914 C 338.381 255.877, 328.208 249.126, 326.600 250.734 M 302.766 277.250 C 304.340 283.374, 310.566 289.713, 316.750 291.489 C 318.959 292.123, 319 291.977, 319 283.567 L 319 275 310.594 275 C 302.371 275, 302.200 275.049, 302.766 277.250 M 326.210 283.250 C 326.497 291.406, 326.529 291.496, 329 291.175 C 332.472 290.723, 338.070 286.062, 340.734 281.405 C 344.266 275.229, 344.042 275, 334.460 275 L 325.919 275 326.210 283.250 M 179.606 285.553 C 174.779 289.900, 139.232 323.963, 121.070 341.645 L 107.568 354.790 111.034 358.352 L 114.500 361.913 126.039 350.706 C 164.342 313.507, 181.463 297.462, 183.162 297.175 C 184.533 296.943, 191.423 302.963, 207.045 318.043 L 229 339.237 229 332.282 L 229 325.328 221.750 318.468 C 217.762 314.695, 207.697 304.946, 199.381 296.804 C 191.066 288.662, 184.091 282.010, 183.881 282.023 C 183.672 282.036, 181.748 283.624, 179.606 285.553 M 223.701 300.658 L 218.902 305.332 223.701 310.213 L 228.500 315.094 228.803 310.014 C 228.970 307.219, 228.970 302.919, 228.803 300.459 L 228.500 295.984 223.701 300.658 M 169.752 318.673 C 155.451 332.610, 134.896 352.336, 131.239 355.631 L 128.979 357.669 129.239 401.084 L 129.500 444.500 140 444.500 L 150.500 444.500 151 402.500 L 151.500 360.500 179.878 360.234 C 206.013 359.989, 208.362 360.108, 209.596 361.734 C 210.664 363.141, 210.943 371.774, 210.968 404.250 L 211 445 220 445 L 229 445 229 397.163 L 229 349.326 208.840 329.913 C 186.405 308.310, 187.165 309.029, 184.748 307.129 C 183.180 305.897, 181.660 307.067, 169.752 318.673 M 349.200 327.200 C 347.497 328.903, 347.497 374.097, 349.200 375.800 C 350.901 377.501, 394.099 377.501, 395.800 375.800 C 397.503 374.097, 397.503 328.903, 395.800 327.200 C 394.099 325.499, 350.901 325.499, 349.200 327.200 M 275.242 388.750 L 275.500 444.500 299 444.500 L 322.500 444.500 322.758 388.750 L 323.017 333 299 333 L 274.983 333 275.242 388.750 M 355 351.524 L 355 370.047 372.250 369.774 L 389.500 369.500 389.773 351.250 L 390.045 333 372.523 333 L 355 333 355 351.524 M 158 373.519 L 158 379.038 180.250 378.769 L 202.500 378.500 202.802 373.250 L 203.105 368 180.552 368 L 158 368 158 373.519 M 158 391.500 L 158 397.038 180.250 396.769 L 202.500 396.500 202.500 391.500 L 202.500 386.500 180.250 386.231 L 158 385.962 158 391.500 M 297.228 387.039 C 294.372 388.186, 293.404 390.577, 295.011 392.513 C 295.950 393.645, 298.596 394, 306.087 394 C 315.181 394, 316.018 393.834, 317.098 391.817 C 318.093 389.958, 317.933 389.364, 316.022 387.817 C 314.301 386.423, 312.116 386.015, 306.639 386.063 C 302.713 386.098, 298.478 386.537, 297.228 387.039 M 351 386.729 C 350.175 387.043, 349.169 387.795, 348.765 388.400 C 347.884 389.720, 347.740 426.158, 348.607 428.418 C 349.136 429.798, 352.189 430, 372.500 430 C 392.811 430, 395.864 429.798, 396.393 428.418 C 396.727 427.548, 397 418.087, 397 407.393 L 397 387.950 394.435 386.975 C 391.750 385.954, 353.603 385.738, 351 386.729 M 355 408.524 L 355 423.047 372.250 422.774 L 389.500 422.500 389.777 408.250 L 390.055 394 372.527 394 L 355 394 355 408.524 M 158 409 L 158 414.038 180.250 413.769 L 202.500 413.500 202.500 409 L 202.500 404.500 180.250 404.231 L 158 403.962 158 409 M 158 433.500 L 158 445.038 180.250 444.769 L 202.500 444.500 202.500 433.500 L 202.500 422.500 180.250 422.231 L 158 421.962 158 433.500" stroke="none" fill="#fafbfb" fill-rule="evenodd"/></svg>